HIERARCHY
ROOT hip
{
  OFFSET -21.3143 78.279 209.86
  CHANNELS 6 Xposition Yposition Zposition Zrotation Xrotation Yrotation
  JOINT abdomen
  {
    OFFSET 0 20.6881 -0.73152
    CHANNELS 3 Zrotation Xrotation Yrotation
    JOINT chest
    {
      OFFSET 0 11.7043 -0.48768
      CHANNELS 3 Zrotation Xrotation Yrotation
      JOINT neck
      {
        OFFSET 0 22.1894 -2.19456
        CHANNELS 3 Zrotation Xrotation Yrotation
        JOINT head
        {
          OFFSET -0.24384 7.07133 1.2192
          CHANNELS 3 Zrotation Xrotation Yrotation
          JOINT leftEye
          {
            OFFSET 4.14528 8.04674 8.04672
            CHANNELS 3 Zrotation Xrotation Yrotation
            End Site
            {
              OFFSET 1 0 0
            }
          }
          JOINT rightEye
          {
            OFFSET -3.6576 8.04674 8.04672
            CHANNELS 3 Zrotation Xrotation Yrotation
            End Site
            {
              OFFSET 1 0 0
            }
          }
        }
      }
      JOINT rCollar
      {
        OFFSET -2.68224 19.2634 -4.8768
        CHANNELS 3 Zrotation Xrotation Yrotation
        JOINT rShldr
        {
          OFFSET -8.77824 -1.95073 1.46304
          CHANNELS 3 Zrotation Xrotation Yrotation
          JOINT rForeArm
          {
            OFFSET -28.1742 -1.7115 0.48768
            CHANNELS 3 Zrotation Xrotation Yrotation
            JOINT rHand
            {
              OFFSET -22.5879 0.773209 7.07136
              CHANNELS 3 Zrotation Xrotation Yrotation
              JOINT rThumb1
              {
                OFFSET -1.2192 -0.487915 3.41376
                CHANNELS 3 Zrotation Xrotation Yrotation
                JOINT rThumb2
                {
                  OFFSET -3.37035 -0.52449 3.41376
                  CHANNELS 3 Zrotation Xrotation Yrotation
                  End Site
                  {
                    OFFSET -1.78271 -1.18214 1.43049
                  }
                }
              }
              JOINT rIndex1
              {
                OFFSET -7.75947 0.938293 5.60832
                CHANNELS 3 Zrotation Xrotation Yrotation
                JOINT rIndex2
                {
                  OFFSET -2.54057 -0.884171 1.56538
                  CHANNELS 3 Zrotation Xrotation Yrotation
                  End Site
                  {
                    OFFSET -1.62519 -0.234802 1.16502
                  }
                }
              }
              JOINT rMid1
              {
                OFFSET -8.24714 1.18213 3.41376
                CHANNELS 3 Zrotation Xrotation Yrotation
                JOINT rMid2
                {
                  OFFSET -3.10165 -0.590103 1.0647
                  CHANNELS 3 Zrotation Xrotation Yrotation
                  End Site
                  {
                    OFFSET -2.48547 -0.328903 0.83742
                  }
                }
              }
              JOINT rRing1
              {
                OFFSET -8.82822 0.546677 1.51678
                CHANNELS 3 Zrotation Xrotation Yrotation
                JOINT rRing2
                {
                  OFFSET -2.60934 -0.819778 -0.0198488
                  CHANNELS 3 Zrotation Xrotation Yrotation
                  End Site
                  {
                    OFFSET -2.33842 -0.294052 0.168128
                  }
                }
              }
              JOINT rPinky1
              {
                OFFSET -8.27202 -0.0477905 -0.4584
                CHANNELS 3 Zrotation Xrotation Yrotation
                JOINT rPinky2
                {
                  OFFSET -1.82734 -0.647385 -0.700984
                  CHANNELS 3 Zrotation Xrotation Yrotation
                  End Site
                  {
                    OFFSET -1.69225 -0.51767 -0.607171
                  }
                }
              }
            }
          }
        }
      }
      JOINT lCollar
      {
        OFFSET 2.68224 19.2634 -4.8768
        CHANNELS 3 Zrotation Xrotation Yrotation
        JOINT lShldr
        {
          OFFSET 8.77824 -1.95073 1.46304
          CHANNELS 3 Zrotation Xrotation Yrotation
          JOINT lForeArm
          {
            OFFSET 28.1742 -1.7115 0.48768
            CHANNELS 3 Zrotation Xrotation Yrotation
            JOINT lHand
            {
              OFFSET 22.5879 0.773209 7.07136
              CHANNELS 3 Zrotation Xrotation Yrotation
              JOINT lThumb1
              {
                OFFSET 1.2192 -0.487915 3.41376
                CHANNELS 3 Zrotation Xrotation Yrotation
                JOINT lThumb2
                {
                  OFFSET 3.37035 -0.52449 3.41376
                  CHANNELS 3 Zrotation Xrotation Yrotation
                  End Site
                  {
                    OFFSET 1.78271 -1.18214 1.43049
                  }
                }
              }
              JOINT lIndex1
              {
                OFFSET 7.75947 0.938293 5.60832
                CHANNELS 3 Zrotation Xrotation Yrotation
                JOINT lIndex2
                {
                  OFFSET 2.54057 -0.884171 1.56538
                  CHANNELS 3 Zrotation Xrotation Yrotation
                  End Site
                  {
                    OFFSET 1.62519 -0.234802 1.16502
                  }
                }
              }
              JOINT lMid1
              {
                OFFSET 8.24714 1.18213 3.41376
                CHANNELS 3 Zrotation Xrotation Yrotation
                JOINT lMid2
                {
                  OFFSET 3.10165 -0.590103 1.0647
                  CHANNELS 3 Zrotation Xrotation Yrotation
                  End Site
                  {
                    OFFSET 2.48547 -0.328903 0.83742
                  }
                }
              }
              JOINT lRing1
              {
                OFFSET 8.82822 0.546677 1.51678
                CHANNELS 3 Zrotation Xrotation Yrotation
                JOINT lRing2
                {
                  OFFSET 2.60934 -0.819778 -0.0198488
                  CHANNELS 3 Zrotation Xrotation Yrotation
                  End Site
                  {
                    OFFSET 2.33842 -0.294052 0.168128
                  }
                }
              }
              JOINT lPinky1
              {
                OFFSET 8.27202 -0.0477905 -0.4584
                CHANNELS 3 Zrotation Xrotation Yrotation
                JOINT lPinky2
                {
                  OFFSET 1.82734 -0.647385 -0.700984
                  CHANNELS 3 Zrotation Xrotation Yrotation
                  End Site
                  {
                    OFFSET 1.69225 -0.51767 -0.607171
                  }
                }
              }
            }
          }
        }
      }
    }
  }
  JOINT rButtock
  {
    OFFSET -8.77824 4.35084 1.2192
    CHANNELS 3 Zrotation Xrotation Yrotation
    JOINT rThigh
    {
      OFFSET 0 -1.70687 -2.19456
      CHANNELS 3 Zrotation Xrotation Yrotation
      JOINT rShin
      {
        OFFSET 0 -36.8199 0.73152
        CHANNELS 3 Zrotation Xrotation Yrotation
        JOINT rFoot
        {
          OFFSET 0.73152 -45.1104 -5.12064
          CHANNELS 3 Zrotation Xrotation Yrotation
          End Site
          {
            OFFSET -1.1221 -3.69964 12.103
          }
        }
      }
    }
  }
  JOINT lButtock
  {
    OFFSET 8.77824 4.35084 1.2192
    CHANNELS 3 Zrotation Xrotation Yrotation
    JOINT lThigh
    {
      OFFSET 0 -1.70687 -2.19456
      CHANNELS 3 Zrotation Xrotation Yrotation
      JOINT lShin
      {
        OFFSET 0 -36.8199 0.73152
        CHANNELS 3 Zrotation Xrotation Yrotation
        JOINT lFoot
        {
          OFFSET -0.73152 -45.1104 -5.12064
          CHANNELS 3 Zrotation Xrotation Yrotation
          End Site
          {
            OFFSET 1.1221 -3.69964 12.103
          }
        }
      }
    }
  }
}
MOTION
Frames:	4
Frame Time:	0.00833333
122.576 84.3737 -106.124 0.788397 0.000540101 -0.0144448 -1.03703 -0.00414449 -0.0285995 -0.285908 -0.00382826 -0.0495305 -3.24289e-014 1.59028e-015 2.60905e-016 -9.74293e-014 9.54166e-015 7.53208e-016 -0 0 0 -0 0 0 -1.5855e-014 -1.04828e-017 1.98785e-016 -3.3845e-013 -6.39838e-016 2.78299e-015 -5.86027e-012 1.74712e-012 1.01778e-013 -6.71363e-011 -1.79403e-012 4.29375e-013 -1.58354e-010 -9.65137e-014 1.16408e-012 -2.7348e-010 -1.65389e-013 2.02363e-012 -1.5835e-010 -9.62118e-014 1.1609e-012 7.73091 5.47488 0.417314 -1.58355e-010 -9.69075e-014 1.16726e-012 2.90554 0.965183 0.102902 -1.58349e-010 -9.66093e-014 1.16249e-012 10.2786 0.731801 0.0259123 -1.58359e-010 -9.26337e-014 1.17044e-012 2.22167 -0.733487 -0.20892 -1.6051e-014 -7.76503e-018 0 -3.4119e-013 -1.55301e-016 7.95139e-016 -5.87314e-012 -1.75527e-012 1.17681e-013 -6.71217e-011 1.73243e-012 4.16653e-013 -1.58348e-010 -5.07876e-014 1.15772e-012 -2.7345e-010 -8.5875e-014 2.00295e-012 -1.58351e-010 -5.24792e-014 1.17044e-012 -7.73091 5.47488 -0.417314 -1.58348e-010 -5.14852e-014 1.15454e-012 -2.90554 0.965183 -0.102902 -1.58352e-010 -5.11871e-014 1.15931e-012 -10.2786 0.731801 -0.0259123 -1.58339e-010 -4.77083e-014 1.15454e-012 -2.22167 -0.733487 0.20892 -2.03217e-016 0 -3.88251e-019 -0.272999 -1.9197 -0.0125378 -0.00938387 -2.07854 -0.0775704 -0.513094 3.99654 0.140435 2.03217e-016 0 3.88251e-019 -1.3051 -5.55693 0.114034 -0.00020336 4.5098 -0.0271093 0.527542 1.04556 -0.0815741 
125.147 82.5208 -111.035 -13.4654 -18.5432 24.9772 -3.11549 3.07667 -2.60201 0.746408 -1.32042 -0.793993 0.396557 0.0288844 -1.2538 2.0595 8.43845 -2.27017 -0 0 0 -0 0 0 -1.49943e-014 -6.21002e-014 -7.07937e-015 20.1524 12.9945 -3.52145 -10.8263 -7.70562 12.8169 0.0233174 -3.39029 -0.473472 -3.12279e-010 6.60399e-010 -7.35629e-010 -5.30306e-010 1.14461e-009 -1.27212e-009 -3.12275e-010 6.60399e-010 -7.35635e-010 7.73091 5.47488 0.417314 -3.1228e-010 6.60398e-010 -7.35628e-010 2.90554 0.965183 0.102902 -3.12275e-010 6.60398e-010 -7.35631e-010 10.2786 0.731801 0.0259123 -3.12283e-010 6.60402e-010 -7.35622e-010 2.22167 -0.733487 -0.20892 -1.51599e-014 -6.21037e-014 -7.33834e-015 -19.575 11.8069 -6.44196 9.16703 -6.03243 -11.722 -0.0916228 -6.72298 0.921525 -1.4746e-010 -1.89155e-010 7.06988e-010 -2.70948e-010 -3.30512e-010 1.22233e-009 -1.47463e-010 -1.89156e-010 7.06999e-010 -7.73091 5.47488 -0.417314 -1.47459e-010 -1.89155e-010 7.06987e-010 -2.90554 0.965183 -0.102902 -1.47463e-010 -1.89155e-010 7.06989e-010 -10.2786 0.731801 -0.0259123 -1.47452e-010 -1.89152e-010 7.06983e-010 -2.22167 -0.733487 0.20892 -2.03217e-016 0 -3.88251e-019 0.193103 -9.00321 0.954783 0.0153403 9.01738 0.0960607 -0.184809 -3.86826 0.442219 2.03217e-016 0 3.88251e-019 3.16453 -12.3121 -4.06085 -0.0590884 14.0838 -0.245017 0.654828 -6.87543 2.6609 
124.853 82.4818 -109.225 -12.0657 -26.2386 56.6928 -5.00872 6.30848 -5.36 1.79939 -2.70983 -1.586 0.819741 0.0541887 -2.57892 4.99572 17.3237 -4.84036 -0 0 0 -0 0 0 -1.80595e-014 -1.12511e-013 -1.5499e-014 43.38 26.5704 -7.9204 -18.5795 -14.5897 27.0904 -0.0134416 -6.98713 -0.981451 -4.67113e-010 1.42224e-009 -1.57838e-009 -7.87419e-010 2.46486e-009 -2.72926e-009 -4.67109e-010 1.42224e-009 -1.57839e-009 7.73091 5.47488 0.417314 -4.67114e-010 1.42224e-009 -1.57838e-009 2.90554 0.965183 0.102902 -4.67109e-010 1.42224e-009 -1.57838e-009 10.2786 0.731801 0.0259123 -4.67118e-010 1.42224e-009 -1.57837e-009 2.22167 -0.733487 -0.20892 -1.8195e-014 -1.12521e-013 -1.58251e-014 -37.1583 23.7818 -14.2211 16.2245 -11.5838 -24.529 0.0530204 -13.8246 1.9389 -1.2414e-010 -3.9234e-010 1.50339e-009 -2.4915e-010 -6.8589e-010 2.59954e-009 -1.24143e-010 -3.92341e-010 1.5034e-009 -7.73091 5.47488 -0.417314 -1.24139e-010 -3.9234e-010 1.50339e-009 -2.90554 0.965183 -0.102902 -1.24144e-010 -3.9234e-010 1.50339e-009 -10.2786 0.731801 -0.0259123 -1.24134e-010 -3.92337e-010 1.50338e-009 -2.22167 -0.733487 0.20892 -2.03217e-016 0 -3.88251e-019 0.96463 -16.4726 2.05349 -0.0355262 20.7465 0.296256 0.255126 -12.1982 0.778028 2.03217e-016 0 3.88251e-019 6.76758 -19.3018 -8.76862 -0.0346931 24.2141 -0.504697 1.63573 -15.1871 5.71124 
124.677 82.5014 -107.523 -7.74118 -16.6804 80.4078 -6.43587 9.16289 -7.83821 2.70822 -3.95083 -2.28773 1.19346 0.0864873 -3.76141 8.35743 25.1478 -7.44595 -0 0 0 -0 0 0 -1.32728e-014 -1.8628e-013 -2.16357e-014 66.3285 38.3106 -13.1634 -22.5659 -18.4405 40.5717 -0.10041 -10.1681 -1.44056 -6.20129e-010 1.98139e-009 -2.20921e-009 -1.04396e-009 3.43417e-009 -3.82041e-009 -6.20124e-010 1.98139e-009 -2.20923e-009 7.73091 5.47488 0.417314 -6.20129e-010 1.98139e-009 -2.20922e-009 2.90554 0.965183 0.102902 -6.20125e-010 1.98139e-009 -2.20922e-009 10.2786 0.731801 0.0259123 -6.20133e-010 1.98139e-009 -2.20921e-009 2.22167 -0.733487 -0.20892 -1.33775e-014 -1.86295e-013 -2.2015e-014 -49.6111 33.4504 -22.8627 20.4054 -15.055 -36.4057 0.40959 -20.1474 2.92467 -1.25682e-010 -5.67364e-010 2.11865e-009 -2.65943e-010 -9.91364e-010 3.66297e-009 -1.25685e-010 -5.67364e-010 2.11866e-009 -7.73091 5.47488 -0.417314 -1.25682e-010 -5.67363e-010 2.11865e-009 -2.90554 0.965183 -0.102902 -1.25686e-010 -5.67364e-010 2.11865e-009 -10.2786 0.731801 -0.0259123 -1.25678e-010 -5.67361e-010 2.11864e-009 -2.22167 -0.733487 0.20892 -2.03217e-016 0 -3.88251e-019 1.89723 -23.1435 3.10414 -0.16203 31.2082 0.514049 0.734175 -19.5948 1.1076 2.03217e-016 0 3.88251e-019 8.89917 -25.2927 -13.4378 0.0802219 33.2296 -0.78772 3.33091 -22.5008 8.75988 
